FILE "Ys Book I _ II - Ancient Ys Vanished (USA).bin" BINARY
  TRACK 01 AUDIO
    INDEX 01 00:00:00
  TRACK 02 MODE1/2352
    PREGAP 00:03:00
    INDEX 01 00:44:71
  TRACK 03 AUDIO
    PREGAP 00:02:00
    INDEX 01 02:37:02
  TRACK 04 AUDIO
    INDEX 00 04:38:41
    INDEX 01 04:40:41
  TRACK 05 AUDIO
    INDEX 00 06:42:02
    INDEX 01 06:44:02
  TRACK 06 AUDIO
    INDEX 00 08:48:24
    INDEX 01 08:50:24
  TRACK 07 AUDIO
    INDEX 00 10:53:27
    INDEX 01 10:55:27
  TRACK 08 AUDIO
    INDEX 00 12:45:15
    INDEX 01 12:47:15
  TRACK 09 AUDIO
    INDEX 00 14:52:57
    INDEX 01 14:54:57
  TRACK 10 AUDIO
    INDEX 00 17:14:45
    INDEX 01 17:16:45
  TRACK 11 AUDIO
    INDEX 00 19:33:36
    INDEX 01 19:35:36
  TRACK 12 AUDIO
    INDEX 00 21:45:07
    INDEX 01 21:47:07
  TRACK 13 AUDIO
    INDEX 00 23:43:65
    INDEX 01 23:45:65
  TRACK 14 AUDIO
    INDEX 00 25:43:29
    INDEX 01 25:45:29
  TRACK 15 AUDIO
    INDEX 00 28:44:03
    INDEX 01 28:46:03
  TRACK 16 AUDIO
    INDEX 00 31:41:53
    INDEX 01 31:43:53
  TRACK 17 AUDIO
    INDEX 00 34:05:66
    INDEX 01 34:07:66
  TRACK 18 AUDIO
    INDEX 00 35:46:21
    INDEX 01 35:48:21
  TRACK 19 AUDIO
    INDEX 00 38:08:71
    INDEX 01 38:10:71
  TRACK 20 AUDIO
    INDEX 00 39:47:59
    INDEX 01 39:49:59
  TRACK 21 AUDIO
    INDEX 00 44:47:53
    INDEX 01 44:49:53
  TRACK 22 AUDIO
    INDEX 00 47:32:51
    INDEX 01 47:34:51
  TRACK 23 AUDIO
    INDEX 00 49:27:09
    INDEX 01 49:29:09
  TRACK 24 AUDIO
    INDEX 00 51:24:25
    INDEX 01 51:26:25
  TRACK 25 AUDIO
    INDEX 00 52:27:35
    INDEX 01 52:29:35
  TRACK 26 AUDIO
    INDEX 00 54:40:64
    INDEX 01 54:42:64
  TRACK 27 AUDIO
    INDEX 00 57:26:46
    INDEX 01 57:28:46
  TRACK 28 AUDIO
    INDEX 00 60:39:35
    INDEX 01 60:41:35
  TRACK 29 AUDIO
    INDEX 00 61:38:16
    INDEX 01 61:40:16
  TRACK 30 AUDIO
    INDEX 00 61:56:67
    INDEX 01 61:58:67
  TRACK 31 AUDIO
    INDEX 00 62:56:70
    INDEX 01 62:58:70
  TRACK 32 AUDIO
    INDEX 00 63:37:04
    INDEX 01 63:39:04
  TRACK 33 AUDIO
    INDEX 00 63:59:27
    INDEX 01 64:01:27
  TRACK 34 AUDIO
    INDEX 00 64:18:44
    INDEX 01 64:20:44
  TRACK 35 AUDIO
    INDEX 00 64:52:06
    INDEX 01 64:54:06
  TRACK 36 AUDIO
    INDEX 00 65:02:72
    INDEX 01 65:04:72
  TRACK 37 AUDIO
    INDEX 00 66:08:26
    INDEX 01 66:10:26
  TRACK 38 AUDIO
    INDEX 00 67:19:44
    INDEX 01 67:21:44
  TRACK 39 AUDIO
    INDEX 00 68:25:23
    INDEX 01 68:27:23
  TRACK 40 AUDIO
    INDEX 00 68:40:37
    INDEX 01 68:42:37
  TRACK 41 AUDIO
    INDEX 00 69:28:10
    INDEX 01 69:30:10
  TRACK 42 AUDIO
    INDEX 00 70:43:48
    INDEX 01 70:45:48
  TRACK 43 AUDIO
    INDEX 00 71:22:72
    INDEX 01 71:24:72
